<?xml version="1.0" encoding="utf-8"?>
<!-- Generator: Adobe Illustrator 24.0.1, SVG Export Plug-In . SVG Version: 6.00 Build 0)  -->
<svg version="1.1" id="Computer" xmlns="http://www.w3.org/2000/svg" xmlns:xlink="http://www.w3.org/1999/xlink" x="0px" y="0px"
	 viewBox="0 0 600 360.81" style="enable-background:new 0 0 600 360.81;" xml:space="preserve">
<style type="text/css">
	.st0{opacity:0.8;fill:url(#Lines_2_1_);}
	.st1{opacity:0.1;fill:#6DCACE;}
	.st2{opacity:0.67;}
	.st3{fill:#1A134B;}
	.st4{opacity:0.9;}
	.st5{fill:#130F43;}
	.st6{fill:#6DCACE;}
	.st7{fill:url(#SVGID_1_);}
	.st8{fill:url(#SVGID_2_);}
	.st9{fill:#282567;}
	.st10{opacity:0.51;}
	.st11{fill:#47419A;}
	.st12{fill:url(#SVGID_3_);}
	.st13{fill:url(#SVGID_4_);}
	.st14{fill:#FFFFFF;}
	.st15{opacity:0.8;}
</style>
<radialGradient id="Lines_2_1_" cx="-13.6669" cy="54.4057" r="439.3419" gradientTransform="matrix(-1 0 0 1 599.3333 0)" gradientUnits="userSpaceOnUse">
	<stop  offset="0" style="stop-color:#ED3995"/>
	<stop  offset="0.0854" style="stop-color:#D64599"/>
	<stop  offset="0.2478" style="stop-color:#B453A0"/>
	<stop  offset="0.4094" style="stop-color:#965BA5"/>
	<stop  offset="0.5675" style="stop-color:#7E5FA9"/>
	<stop  offset="0.7208" style="stop-color:#6B62AB"/>
	<stop  offset="0.8675" style="stop-color:#5F63AD"/>
	<stop  offset="1" style="stop-color:#5A64AD"/>
</radialGradient>
<path id="Lines_2" class="st0" d="M583.37,0.54c-1.24-0.72-3.25-0.72-4.49,0c-0.93,0.54-1.16,1.33-0.69,1.99l-69.53,40.14l0,50.67
	l-16.94,9.78l0,55.11l-58.02,33.5l-9.04-5.22l44.74-25.83l0-30.21l-0.18-0.1l-50.87-29.37V90.75l28.77-16.61
	c1.24,0.52,2.98,0.46,4.1-0.18c1.24-0.72,1.24-1.88,0-2.59c-1.24-0.72-3.25-0.72-4.49,0c-1.12,0.65-1.22,1.65-0.32,2.37
	l-28.77,16.61v11.07l0.18,0.1l50.87,29.37l0,29.39l-33.8,19.52l0-12.59l15.5-8.95c1.24,0.52,2.98,0.46,4.1-0.18
	c1.24-0.72,1.24-1.88,0-2.59c-1.24-0.72-3.25-0.72-4.49,0c-1.12,0.65-1.22,1.65-0.32,2.37l-15.5,8.95l0,13.41l-10.22,5.9
	l-12.09-6.98l0-21.92l22.8-13.17l0-15.15l-0.18-0.1l-48.01-27.72c0.9-0.72,0.8-1.72-0.32-2.37c-1.24-0.72-3.25-0.72-4.49,0
	c-1.24,0.72-1.24,1.88,0,2.59c1.12,0.65,2.86,0.7,4.1,0.18l48.18,27.82l0,14.33l-22.09,12.76l0-15.11l-0.18-0.1l-29.37-16.96
	c0.9-0.72,0.8-1.72-0.32-2.37c-1.24-0.72-3.25-0.72-4.49,0c-1.24,0.72-1.24,1.88,0,2.59c1.12,0.65,2.86,0.7,4.1,0.18l29.55,17.06
	l0,37.03l-8.49-4.9l-13.99,8.08l-12.67-7.32l0-17.78l-0.18-0.1l-33.5-19.34l0-16.76c0.69-0.04,1.36-0.21,1.89-0.52
	c1.24-0.72,1.24-1.88,0-2.59c-1.24-0.72-3.25-0.72-4.49,0c-1.24,0.72-1.24,1.88,0,2.59c0.53,0.31,1.2,0.47,1.89,0.52l0,17.17
	l0.18,0.1l33.5,19.34l0,16.96l-54.52-31.48l0-33.37l29.57-17.07l27.14,0l0.08-0.05l46.57-26.88c1.24,0.52,2.98,0.46,4.1-0.18
	c1.24-0.72,1.24-1.88,0-2.59c-1.24-0.72-3.25-0.72-4.49,0c-1.12,0.65-1.22,1.65-0.32,2.37l-46.13,26.63l-25.72,0l85.55-49.39
	c1.24,0.52,2.98,0.46,4.1-0.18c1.24-0.72,1.24-1.88,0-2.59c-1.24-0.72-3.25-0.72-4.49,0c-1.12,0.65-1.22,1.65-0.32,2.37
	L320.04,108.9l0,34.19l0.18,0.1l67.73,39.1l-13.63,7.87L258.68,123.4l0-39.84l-0.18-0.1l-39.33-22.7c0.9-0.72,0.8-1.72-0.32-2.37
	c-1.24-0.72-3.25-0.72-4.49,0c-1.24,0.72-1.24,1.88,0,2.59c1.12,0.65,2.86,0.7,4.1,0.18l39.5,22.81l0,39.84l0.18,0.1l115.46,66.66
	l-12.98,7.49l-114.36-66.03l-68.2,0l-42.62-24.61l0-37.82c0.45-0.09,0.87-0.23,1.23-0.43c1.24-0.72,1.24-1.88,0-2.59
	c-1.24-0.72-3.25-0.72-4.49,0c-1.24,0.72-1.24,1.88,0,2.59c0.7,0.4,1.64,0.57,2.55,0.52l0,38.14l0.18,0.1l42.97,24.81l68.2,0
	l96.54,55.74l-19.42,0l-32.95-19.02h-25.38l-0.08,0.05l-35.2,20.32c-1.24-0.52-2.98-0.46-4.1,0.18c-1.24,0.72-1.24,1.88,0,2.59
	c1.24,0.72,3.25,0.72,4.49,0c1.12-0.65,1.22-1.65,0.32-2.37l34.76-20.07h25l32.95,19.02l20.84,0l16.07,9.28l-34.64,20l-9.85-5.69
	v-14.93l-25.02-14.45c0.9-0.72,0.8-1.72-0.32-2.37c-1.24-0.72-3.25-0.72-4.49,0c-1.24,0.72-1.24,1.88,0,2.59
	c1.12,0.65,2.86,0.7,4.1,0.18l25.02,14.45v14.11l-26.69-15.41h-12.64l-0.08,0.05l-15.07,8.7c-1.24-0.52-2.98-0.46-4.1,0.18
	c-1.24,0.72-1.24,1.88,0,2.59c1.24,0.72,3.25,0.72,4.49,0c1.12-0.65,1.22-1.65,0.32-2.37l14.63-8.44h12.25l36.73,21.2l-6.67,3.85
	l21.29,12.29l-9.97,5.76h-15.08l-10.79-6.23c0.86-0.71,0.74-1.7-0.36-2.34c-1.24-0.72-3.25-0.72-4.49,0c-1.24,0.72-1.24,1.88,0,2.59
	c1.13,0.65,2.9,0.7,4.15,0.16l11.3,6.52h14.04l-25.43,14.68l-59.82-34.54l-43.05,0l-0.08,0.05l-24.24,13.99
	c-1.24-0.52-2.98-0.46-4.1,0.18c-1.24,0.72-1.24,1.88,0,2.59c1.24,0.72,3.25,0.72,4.49,0c1.12-0.65,1.22-1.65,0.32-2.37l23.8-13.74
	l42.66,0l46.14,26.64h-19.75l-19.3-11.14c0.9-0.72,0.8-1.72-0.32-2.37c-1.24-0.72-3.25-0.72-4.49,0c-1.24,0.72-1.24,1.88,0,2.59
	c1.12,0.65,2.86,0.7,4.1,0.18l19.82,11.45h21.17l11.93,6.89l-30.37,17.53l-97.06,0l-75.41-43.54c0.9-0.72,0.8-1.72-0.32-2.37
	c-1.24-0.72-3.25-0.72-4.49,0c-1.24,0.72-1.24,1.88,0,2.59c1.12,0.65,2.86,0.7,4.1,0.18l75.93,43.84l96.02,0l-12.05,6.96l-71.85,0
	l-0.08,0.05l-35.43,20.46c-1.24-0.52-2.98-0.46-4.1,0.18c-1.24,0.72-1.24,1.88,0,2.59c1.24,0.72,3.25,0.72,4.49,0
	c1.12-0.65,1.22-1.65,0.32-2.37l35-20.2l71.85,0l0.08-0.05l81.43-47.01l9.04,5.22l-85.61,49.43h-62.61l-0.08,0.05l-75.62,43.66
	l-104.77,0L0,322.11v0.82l20.06,11.58l105.15,0l0.08-0.05l47.46-27.4l0,16.22l-31.28,18.06c-1.24-0.52-2.98-0.46-4.1,0.18
	c-1.24,0.72-1.24,1.88,0,2.59c1.24,0.72,3.25,0.72,4.49,0c1.12-0.65,1.22-1.65,0.32-2.37l31.28-18.06l0-16.94h-0.16l27.62-15.95
	h62.61l0.08-0.05l86.05-49.68l10.27,5.93l-166.96,96.39l0,17.42h0.71l0-17.01l166.96-96.39l12.69,7.33l-86.12,49.72l0,8.89
	l-15.27,8.82v20.45l-29.61,17.1c-1.24-0.52-2.98-0.46-4.1,0.18c-0.45,0.26-0.74,0.58-0.86,0.92h6.19c-0.09-0.25-0.26-0.48-0.52-0.69
	l29.61-17.1v-20.45l14.56-8.41l0,32.74l8.59,4.96l-15.48,8.94h1.42l14.77-8.53l14.77,8.53h1.42L287.9,346.5l0-41.63l86.12-49.72
	l11.55,6.67L324.63,297c-1.24-0.52-2.98-0.46-4.1,0.18c-1.24,0.72-1.24,1.88,0,2.59c1.24,0.72,3.25,0.72,4.49,0
	c1.12-0.65,1.22-1.65,0.32-2.37l60.95-35.19l11.15,6.44l-72.91,42.09h-19.81c-0.12-0.34-0.41-0.67-0.87-0.94
	c-1.24-0.72-3.25-0.72-4.49,0c-1.24,0.72-1.24,1.88,0,2.59c1.24,0.72,3.25,0.72,4.49,0c0.46-0.27,0.75-0.6,0.87-0.94h20l0.08-0.05
	l73.34-42.34l4.5,2.6l3.46-2l17.47,10.09l0,14.04l-14.43,8.33v-0.04h-22.65l-0.08,0.05l-24.85,14.35c-1.24-0.52-2.98-0.46-4.1,0.18
	c-1.24,0.72-1.24,1.88,0,2.59c1.24,0.72,3.25,0.72,4.49,0c1.12-0.65,1.22-1.65,0.32-2.37l24.41-14.09h21.29l-42.43,24.49
	c-1.25-0.56-3.04-0.52-4.19,0.14c-1.24,0.72-1.24,1.88,0,2.59c1.24,0.72,3.25,0.72,4.49,0c1.09-0.63,1.22-1.6,0.39-2.32l52.92-30.55
	l0,6.75l-31.48,18.18v12.83l-25.63,14.8c-1.24-0.52-2.98-0.46-4.1,0.18c-1.24,0.72-1.24,1.88,0,2.59c1.24,0.72,3.25,0.72,4.49,0
	c1.12-0.65,1.22-1.65,0.32-2.37l25.63-14.8V322.5l31.48-18.18l0-7.57l4.41-2.55l0-14.86l-17.47-10.08l11.48-6.63l35.94,20.75
	l0,23.59l-24.41,14.09c-1.25-0.56-3.04-0.52-4.19,0.14c-1.24,0.72-1.24,1.88,0,2.59c1.24,0.72,3.25,0.72,4.49,0
	c1.09-0.63,1.22-1.6,0.39-2.32l23.71-13.69l0,19.06l-18.73,10.82l0,23.14h0.71l0-22.73l18.02-10.41l0,33.13h0.71l0-77.83
	l-35.94-20.75l12.89-7.44l46.98,27.12l0,64.6l22.58,13.04l0,1.27h0.71l0-1.68l-22.58-13.04l0-64.6l-46.98-27.12l9.55-5.52l63.4,36.6
	l0,55.11l35.05,20.24h1.42l-35.76-20.65l0-55.11l-63.4-36.6l15.48-8.94l105.49,60.9l0,27.42L600,348.71v-0.82l-35.44-20.46l0-27.42
	l-59.33-34.26h46.92L600,293.37v-0.82l-47.66-27.52H504l-44.92-25.93l18-10.39L515.68,251l62,0L600,263.88v-0.82l-4.89-2.82l4.89,0
	v-0.71l-6.12,0l-16-9.24l-62,0l-10.81-6.24h26.36l0.08-0.05l13.22-7.63l55.09,0l0.18,0.11v-0.82l-54.04,0l14.88-8.59
	c1.24,0.52,2.98,0.46,4.1-0.18c1.24-0.72,1.24-1.88,0-2.59c-1.24-0.72-3.25-0.72-4.49,0c-1.12,0.65-1.22,1.65-0.32,2.37l-28.9,16.69
	h-27.4l-26.06-15.04l9.63-5.56l-6.2-3.58h18.01l23.54,13.59c-0.9,0.72-0.8,1.72,0.32,2.37c1.24,0.72,3.25,0.72,4.49,0
	c1.24-0.72,1.24-1.88,0-2.59c-1.12-0.65-2.86-0.7-4.1-0.18l-24.06-13.89h-19.43l-13.18-7.61l8.1-4.68h14.37l12.64-7.3h9.43
	l21.3,12.3c-0.96,0.72-0.88,1.75,0.26,2.41c1.24,0.72,3.25,0.72,4.49,0c1.24-0.72,1.24-1.88,0-2.59c-1.1-0.63-2.79-0.7-4.03-0.22
	l-21.83-12.6h-9.81l-12.64,7.3h-12.95l25.91-14.96h13.99l29.16,16.83l54.81,0v-0.71l-54.62,0l-29.16-16.83h-14.37l-0.08,0.05
	l-35.68,20.6l-9.36-5.4l40.32-23.28l28.44,0l23.46,13.54l51.06,0v-0.71l-50.86,0l-22.23-12.83l73.09,0v-0.71l-103.14,0l-0.08,0.05
	l-40.75,23.53l-10.64-6.14l56.22-32.46l98.39,0v-0.71l-71.7,0l71.7-41.4v-0.82l-73.12,42.22l-24.75,0l53.3-30.77v-6.78l25.51-14.72
	c1.24,0.52,2.98,0.46,4.1-0.18c1.24-0.72,1.24-1.88,0-2.59c-1.24-0.72-3.25-0.72-4.49,0c-1.12,0.65-1.22,1.65-0.32,2.37l-13.89,8.02
	l0-18.59L600,82.61v-0.82l-34.38,19.85l0,19.41l-10.91,6.3v6.78l-53.74,31.03l0.18,0.31l-56.48,32.61l-10.27-5.93l58.02-33.5
	l0-55.11L600,41.42V40.6l-90.63,52.33l0-49.85l69.37-40.05c0.05,0.03,0.09,0.07,0.14,0.1c1.24,0.72,3.25,0.72,4.49,0
	C584.61,2.41,584.61,1.25,583.37,0.54z M485.99,222.74l-83.34,48.12l-83.33-48.11l83.34-48.12L485.99,222.74z"/>
<path id="Lines_1" class="st1" d="M600,86.76l-14.81,8.55l0,27.56l-131.6,75.98l-10-5.77l67.88-39.19l0-7.01l12.03-6.95l0-16.11
	l23.34-13.47c0.98,0.41,2.35,0.36,3.23-0.15c0.98-0.56,0.98-1.48,0-2.04c-0.98-0.56-2.56-0.56-3.54,0c-0.88,0.51-0.96,1.3-0.25,1.87
	l-23.34,13.48l0,16.11l-11.47,6.62l0-25.8l-0.14-0.08l-6.63-3.83l39.79-22.97l0-25.84l28.27-16.32c0.98,0.41,2.35,0.36,3.23-0.15
	c0.98-0.56,0.98-1.48,0-2.04c-0.98-0.56-2.56-0.56-3.54,0c-0.88,0.51-0.96,1.3-0.25,1.87l-28.27,16.32l0,25.84l-39.79,22.97
	l-64.69-37.35l0-28.9c0.54-0.04,1.07-0.17,1.49-0.41c0.98-0.56,0.98-1.48,0-2.04c-0.98-0.56-2.56-0.56-3.54,0
	c-0.98,0.56-0.98,1.48,0,2.04c0.42,0.24,0.95,0.37,1.49,0.41l0,29.22l0.14,0.08l38.91,22.47l-28.36,0l-22.93-13.24
	c0.71-0.56,0.63-1.36-0.25-1.87c-0.98-0.56-2.56-0.56-3.54,0c-0.98,0.56-0.98,1.48,0,2.04c0.88,0.51,2.25,0.55,3.23,0.15
	l23.34,13.48l29.47,0v-0.01l32.02,18.49l0,32.81l-67.88,39.19l-9.1-5.25l48.04-27.74c0.98,0.41,2.35,0.36,3.23-0.15
	c0.98-0.56,0.98-1.48,0-2.04c-0.98-0.56-2.56-0.56-3.54,0c-0.88,0.51-0.96,1.3-0.25,1.87l-48.04,27.74l-8.79-5.07l57.46-33.18
	l15.62,0c0.09,0.27,0.32,0.53,0.69,0.74c0.98,0.56,2.56,0.56,3.54,0c0.98-0.56,0.98-1.48,0-2.04c-0.98-0.56-2.56-0.56-3.54,0
	c-0.36,0.21-0.59,0.47-0.69,0.74l-15.77,0l-0.07,0.04l-57.81,33.38l-3.55-2.05l-0.14,0.08l-2.59,1.5l-13.77-7.95l0-11.06l11.38-6.57
	v0.03l17.85,0l19.65-11.35c0.98,0.41,2.35,0.36,3.23-0.15c0.98-0.56,0.98-1.48,0-2.04c-0.98-0.56-2.56-0.56-3.54,0
	c-0.88,0.51-0.96,1.3-0.25,1.87l-19.24,11.11l-16.78,0l33.44-19.31c0.98,0.44,2.4,0.41,3.3-0.11c0.98-0.56,0.98-1.48,0-2.04
	c-0.98-0.56-2.56-0.56-3.54,0c-0.86,0.5-0.96,1.26-0.31,1.83l-41.71,24.08v-5.32l24.82-14.33v-10.12l20.2-11.66
	c0.98,0.41,2.35,0.36,3.23-0.15c0.98-0.56,0.98-1.48,0-2.04c-0.98-0.56-2.56-0.56-3.54,0c-0.88,0.51-0.96,1.3-0.25,1.87l-20.2,11.67
	v10.12l-24.82,14.33v5.97l-3.48,2.01l0,11.71l13.77,7.95l-9.05,5.22l-28.33-16.36l0-18.59l19.24-11.11c0.98,0.44,2.4,0.41,3.3-0.11
	c0.98-0.56,0.98-1.48,0-2.04c-0.98-0.56-2.56-0.56-3.54,0c-0.86,0.5-0.96,1.26-0.31,1.83l-18.69,10.79l0-15.02l14.77-8.52l0-28.26
	c0.54-0.04,1.07-0.17,1.49-0.41c0.98-0.56,0.98-1.48,0-2.04c-0.98-0.56-2.56-0.56-3.54,0c-0.98,0.56-0.98,1.48,0,2.04
	c0.42,0.24,0.95,0.37,1.49,0.41l0,27.93l-14.2,8.2l0-49.82h-0.56l0,85.06l28.33,16.36l-10.16,5.86l-37.03-21.38l0-50.91l-17.8-10.28
	l0-19.15l-15.72-9.07c0.71-0.57,0.63-1.36-0.25-1.87c-0.98-0.56-2.56-0.56-3.54,0c-0.98,0.56-0.98,1.48,0,2.04
	c0.88,0.51,2.25,0.55,3.23,0.15l15.72,9.07l0,19.15l17.8,10.28l0,50.91l37.03,21.38l-7.53,4.35l-49.97-28.85l0-43.44l-0.14-0.08
	l-44.23-25.54c0.71-0.56,0.63-1.36-0.25-1.87c-0.98-0.56-2.56-0.56-3.54,0c-0.98,0.56-0.98,1.48,0,2.04
	c0.88,0.51,2.25,0.55,3.23,0.15l44.37,25.62l0,43.44l0.14,0.08l49.83,28.77l-12.2,7.05l-83.14-48v-21.62l-0.14-0.08l-69.6-40.19
	c0.71-0.56,0.63-1.36-0.25-1.87c-0.98-0.56-2.56-0.56-3.54,0c-0.98,0.56-0.98,1.48,0,2.04c0.88,0.51,2.25,0.55,3.23,0.15
	l69.75,40.27v21.62l0.14,0.08l46.62,26.92l-36.98,0l-42.81-24.72c0.71-0.56,0.63-1.36-0.25-1.87c-0.98-0.56-2.56-0.56-3.54,0
	c-0.98,0.56-0.98,1.48,0,2.04c0.88,0.51,2.25,0.55,3.23,0.15l43.22,24.96l38.1,0l35.41,20.44l-14.18,8.19l-30.43-17.57h-48.87
	l-55.58-32.09l-30.83,0l-12.57-7.26c0.71-0.57,0.63-1.36-0.25-1.87c-0.98-0.56-2.56-0.56-3.54,0c-0.98,0.56-0.98,1.48,0,2.04
	c0.88,0.51,2.25,0.55,3.23,0.15l12.98,7.49l30.83,0l42,24.25H232.5l-17.47-10.09c0.71-0.56,0.63-1.36-0.25-1.87
	c-0.98-0.56-2.56-0.56-3.54,0c-0.98,0.56-0.98,1.48,0,2.04c0.88,0.51,2.25,0.55,3.23,0.15l17.88,10.32h37.4l12.61,7.28h48.87
	l8.52,4.92h-20.77l-0.06,0.04l-10.42,6.02l-43.42,0l-12.25-7.07h-24.56c-0.09-0.27-0.32-0.53-0.68-0.74c-0.98-0.56-2.56-0.56-3.54,0
	c-0.98,0.56-0.98,1.48,0,2.04c0.98,0.56,2.56,0.56,3.54,0c0.36-0.21,0.59-0.47,0.69-0.74h24.41l12.25,7.07l42.6,0l-11.73,6.77
	c-0.98-0.41-2.35-0.36-3.23,0.15c-0.98,0.56-0.98,1.48,0,2.04c0.98,0.56,2.56,0.56,3.54,0c0.88-0.51,0.96-1.3,0.25-1.86l22.78-13.15
	h21.6l20.54,11.86l-7.59,4.38l0.42,0.24l4.46,2.58l-14.19,0l-18.56-10.71c0.71-0.56,0.63-1.36-0.25-1.87
	c-0.98-0.56-2.56-0.56-3.54,0c-0.98,0.56-0.98,1.48,0,2.04c0.88,0.51,2.25,0.55,3.23,0.15l18.97,10.95l15.32,0l10.39,6l-6.39,3.69
	h-11.33l-0.07,0.04l-9.9,5.71h-7.43l-16.79-9.69c0.75-0.57,0.69-1.38-0.21-1.9c-0.98-0.56-2.56-0.56-3.54,0
	c-0.98,0.56-0.98,1.48,0,2.04c0.86,0.5,2.2,0.55,3.18,0.17l17.21,9.93h7.73l0.06-0.04l9.9-5.71h10.21l-20.42,11.79H331.1
	l-22.98-13.27h-69.3l-42.99-24.82c0.74-0.57,0.68-1.37-0.22-1.89c-0.98-0.56-2.56-0.56-3.54,0c-0.98,0.56-0.98,1.48,0,2.04
	c0.87,0.5,2.21,0.55,3.19,0.17l43.4,25.06h69.3l22.98,13.27h11.33l0.06-0.04l28.12-16.24l7.38,4.26l-31.78,18.35h-22.41
	l-18.49-10.68l-47.46,0c-0.09-0.27-0.32-0.53-0.69-0.74c-0.98-0.56-2.56-0.56-3.54,0s-0.98,1.48,0,2.04c0.98,0.56,2.56,0.56,3.54,0
	c0.36-0.21,0.59-0.47,0.68-0.74l47.31,0l17.52,10.12h-66.87l-0.06,0.04l-63.73,36.79c-0.98-0.41-2.35-0.36-3.23,0.15
	c-0.98,0.56-0.98,1.48,0,2.04c0.98,0.56,2.56,0.56,3.54,0c0.88-0.51,0.96-1.3,0.25-1.86l63.38-36.59h90.41l0.06-0.04l32.12-18.55
	l8.38,4.84L342.47,263h-78.02l-0.06,0.04l-68.32,39.45l-79.61,0l-46.43-26.81c0.71-0.57,0.63-1.36-0.25-1.86
	c-0.98-0.56-2.56-0.56-3.54,0c-0.98,0.56-0.98,1.48,0,2.04c0.88,0.51,2.25,0.55,3.23,0.15l46.84,27.04l79.91,0l0.07-0.04
	l68.32-39.45h56.83l-83.45,48.18l0,12.68l-33.29,19.22c-0.98-0.41-2.35-0.36-3.23,0.15c-0.98,0.56-0.98,1.48,0,2.04
	c0.98,0.56,2.56,0.56,3.54,0c0.88-0.51,0.96-1.3,0.25-1.87l33.29-19.22l0-12.68l84.02-48.51h19.51l-42.01,24.26v5.35l-20.1,11.61
	c-0.98-0.41-2.35-0.36-3.23,0.15c-0.98,0.56-0.98,1.48,0,2.04c0.98,0.56,2.56,0.56,3.54,0c0.88-0.51,0.96-1.3,0.25-1.87l10.95-6.32
	v14.65l-63.24,36.51c-0.98-0.41-2.35-0.36-3.23,0.15c-0.98,0.56-0.98,1.48,0,2.04c0.98,0.56,2.56,0.56,3.54,0
	c0.88-0.51,0.96-1.3,0.25-1.87l63.24-36.51v-15.3l8.6-4.96v-5.35l42.36-24.46l-0.14-0.24l44.52-25.7l8.09,4.67l-45.73,26.4l0,43.44
	l-84.11,48.56h1.12l69.64-40.2l0,39.29l-1.59,0.92h1.12l1.02-0.59l0-39.94l13.35-7.71l0-43.44l45.73-26.4l7.12,4.11l-35.26,20.36
	l0,23.81l0.14,0.08l40.09,23.15l0,8.08l-22.67,13.09c-0.98-0.41-2.35-0.36-3.23,0.15c-0.98,0.56-0.98,1.48,0,2.04
	c0.98,0.56,2.56,0.56,3.54,0c0.88-0.51,0.96-1.3,0.25-1.87l22.67-13.09l0-8.72l-0.14-0.08l-40.09-23.15l0-23.17l26.64-15.38l0,9.92
	l-12.21,7.05c-0.98-0.41-2.35-0.36-3.23,0.15c-0.98,0.56-0.98,1.48,0,2.04c0.98,0.56,2.56,0.56,3.54,0c0.88-0.51,0.96-1.3,0.25-1.86
	l12.21-7.05l0-10.57l8.06-4.65l9.53,5.5l0,17.28l-17.97,10.38v11.95l0.14,0.08l37.84,21.85c-0.71,0.56-0.63,1.36,0.25,1.87
	c0.98,0.56,2.56,0.56,3.54,0c0.98-0.56,0.98-1.48,0-2.04c-0.88-0.51-2.25-0.55-3.23-0.15l-37.98-21.93v-11.3l17.41-10.05l0,11.91
	l23.29,13.45c-0.71,0.57-0.63,1.36,0.25,1.86c0.98,0.56,2.56,0.56,3.54,0c0.98-0.56,0.98-1.48,0-2.04
	c-0.88-0.51-2.25-0.55-3.23-0.15l-23.29-13.45l0-29.19l6.69,3.86l0.14-0.08l10.89-6.29l9.99,5.77l0,14.01l26.55,15.33l0,13.21
	c-0.54,0.04-1.07,0.17-1.49,0.41c-0.98,0.56-0.98,1.48,0,2.04c0.98,0.56,2.56,0.56,3.54,0c0.98-0.56,0.98-1.48,0-2.04
	c-0.42-0.24-0.95-0.37-1.49-0.41l0-13.53l-26.55-15.33l0-13.37l42.98,24.81l0,26.3l-23.31,13.46h-21.39l-0.06,0.04l-36.7,21.19
	c-0.98-0.41-2.35-0.36-3.23,0.15c-0.98,0.56-0.98,1.48,0,2.04c0.98,0.56,2.56,0.56,3.54,0c0.88-0.51,0.96-1.3,0.25-1.86l36.36-20.99
	h20.27l-67.42,38.93c-0.98-0.41-2.35-0.36-3.23,0.15c-0.01,0.01-0.02,0.02-0.03,0.02h4.09l91.44-52.79l0-26.95l-0.14-0.08
	l-53.38-30.82l10.74-6.2l91.14,52.62l0,31.4l31.14,17.98c-0.71,0.57-0.63,1.36,0.25,1.86c0.98,0.56,2.56,0.56,3.54,0
	c0.98-0.56,0.98-1.48,0-2.04c-0.88-0.51-2.25-0.55-3.23-0.15l-31.14-17.98l0-31.4l-0.14-0.08l-91-52.54l10.23-5.91l90.14,52.04
	h53.75l2.52,1.46v-0.65l-2.37-1.37h-53.75l-76.09-43.93h15.3l25.97,14.99l20,0l0.07-0.04l27.74-16.02c0.98,0.41,2.35,0.36,3.23-0.15
	c0.98-0.56,0.98-1.48,0-2.04c-0.98-0.56-2.56-0.56-3.54,0c-0.88,0.51-0.96,1.3-0.25,1.87l-27.4,15.82l-19.7,0l-25.97-14.99h-16.42
	l-12.67-7.31l27.3-15.76l7.76,4.48l0,11.77l19.72,11.39c-0.71,0.56-0.63,1.36,0.25,1.86c0.98,0.56,2.56,0.56,3.54,0
	c0.98-0.56,0.98-1.48,0-2.04c-0.88-0.51-2.25-0.55-3.23-0.15l-19.72-11.39l0-11.12l21.03,12.14h9.96l0.07-0.04l11.88-6.86
	c0.98,0.41,2.35,0.36,3.23-0.15c0.98-0.56,0.98-1.48,0-2.04c-0.98-0.56-2.56-0.56-3.54,0c-0.88,0.51-0.96,1.3-0.25,1.87l-11.53,6.66
	h-9.66l-28.95-16.71l5.26-3.04l-0.42-0.24l-16.36-9.45l7.86-4.54h11.88l8.5,4.91c-0.68,0.56-0.59,1.34,0.28,1.84
	c0.98,0.56,2.56,0.56,3.54,0c0.98-0.56,0.98-1.48,0-2.04c-0.89-0.52-2.29-0.55-3.27-0.13l-8.91-5.14h-11.06l20.04-11.57l47.15,27.22
	h33.93l0.07-0.04l19.1-11.03c0.12,0.05,0.26,0.07,0.4,0.11v-2.58c-0.25,0.07-0.49,0.16-0.7,0.28c-0.88,0.51-0.96,1.3-0.25,1.87
	l-18.76,10.83h-33.63l-36.36-21l15.56,0l15.21,8.78c-0.71,0.56-0.63,1.36,0.25,1.87c0.98,0.56,2.56,0.56,3.54,0
	c0.98-0.56,0.98-1.48,0-2.04c-0.88-0.51-2.25-0.55-3.23-0.15l-15.63-9.02l-16.69,0l-9.41-5.43l23.94-13.82l76.14,0v-0.56l-75.17,0
	l9.5-5.48l56.63,0l0.06-0.04l8.98-5.18v-0.65l-9.19,5.31l-56.63,0l-0.07,0.04l-64.18,37.05l-7.12-4.11l67.47-38.96l49.35,0
	l0.06-0.04L600,153.44v-0.65l-20.53,11.85l-49.35,0l-0.06,0.04l-67.82,39.16l-8.09-4.67l131.6-75.98l0-27.56L600,87.4V86.76z
	 M486.15,218.29l-65.69,37.92l-65.68-37.92l65.69-37.92L486.15,218.29z"/>
<g id="Shade">
	<g class="st2">
		<polygon class="st3" points="403.65,327.73 234.86,230.28 403.65,132.83 572.44,230.28 		"/>
	</g>
	<g class="st2">
		<polygon class="st3" points="403.65,312.61 261.04,230.28 403.65,147.94 546.26,230.28 		"/>
	</g>
	<g class="st4">
		<polygon class="st5" points="403.65,295.05 291.45,230.28 403.65,165.5 515.85,230.28 		"/>
	</g>
</g>
<g id="Laptop">
	<g>
		<path id="Highlight" class="st6" d="M426.74,297.15c-1.05,0-2.16-0.26-3.04-0.77l-133.94-77.33c-0.92-0.53-1.45-1.27-1.45-2.03
			c0-0.66,0.39-1.25,1.1-1.66l79.93-46.15c1.42-0.82,3.81-0.73,5.43,0.21l133.95,77.33c0.92,0.53,1.45,1.27,1.45,2.03
			c0,0.66-0.39,1.25-1.1,1.66l-79.93,46.15C428.49,296.96,427.63,297.15,426.74,297.15z M290.24,218.22l133.95,77.33
			c1.31,0.76,3.36,0.85,4.47,0.21l79.93-46.15c0.28-0.16,0.62-0.44,0.62-0.83c0-0.4-0.36-0.85-0.97-1.2l-133.95-77.33
			c-1.31-0.76-3.36-0.85-4.48-0.21l-79.93,46.15c-0.28,0.16-0.62,0.44-0.62,0.83C289.26,217.42,289.63,217.87,290.24,218.22
			L290.24,218.22z"/>
		<g>
			<g>
				<g>
					<g>
						<g id="Top">
							
								<linearGradient id="SVGID_1_" gradientUnits="userSpaceOnUse" x1="29.0303" y1="136.0016" x2="185.3547" y2="136.0016" gradientTransform="matrix(-1 0 0 1 560.0435 0)">
								<stop  offset="0" style="stop-color:#C2BEDF"/>
								<stop  offset="0.3027" style="stop-color:#C6C3E2"/>
								<stop  offset="0.6588" style="stop-color:#D4D2E9"/>
								<stop  offset="1" style="stop-color:#E8E8F4"/>
							</linearGradient>
							<path class="st7" d="M374.72,145.72l16.93-100.46l-1.36-0.57l2.05-1.17l0,0.01c0.4-0.26,0.96-0.25,1.58,0.11l135.32,78.13
								c1.11,0.64,1.95,2.29,1.76,3.44l-17.07,101.25c-0.09,0.53-0.35,0.88-0.71,1.03l0,0l-2,1.16l-0.34-1.87l0.11,0.03
								l-134.5-77.65C375.36,148.52,374.52,146.87,374.72,145.72z"/>
							
								<linearGradient id="SVGID_2_" gradientUnits="userSpaceOnUse" x1="29.0313" y1="176.0917" x2="55.8737" y2="176.0917" gradientTransform="matrix(-1 0 0 1 560.0435 0)">
								<stop  offset="0" style="stop-color:#5A64AD"/>
								<stop  offset="0.1564" style="stop-color:#5E66AF"/>
								<stop  offset="0.3409" style="stop-color:#686EB4"/>
								<stop  offset="0.5395" style="stop-color:#7A7DBC"/>
								<stop  offset="0.7481" style="stop-color:#9393C8"/>
								<stop  offset="0.9625" style="stop-color:#B6B5DB"/>
								<stop  offset="1" style="stop-color:#BEBDDF"/>
							</linearGradient>
							<path class="st8" d="M528.47,124.52l2.22-0.98c0.25,0.57,0.37,1.17,0.29,1.67l-17.07,101.25c-0.09,0.53-0.35,0.88-0.71,1.03
								l0,0l-2,1.16l-0.34-1.87l0.11,0.03l-6.81-3.93L528.47,124.52z"/>
							<path class="st9" d="M374.35,150.38l135.32,78.13c1.04,0.6,1.94,0.25,2.12-0.83l17.07-101.25c0.2-1.15-0.65-2.8-1.76-3.44
								L391.78,44.86c-1.04-0.6-1.94-0.25-2.12,0.83l-17.07,101.25C372.4,148.09,373.24,149.74,374.35,150.38z"/>
							<g class="st10">
								<polygon class="st11" points="391.33,46.74 527.29,125.2 510.12,226.72 374.25,148.31 								"/>
							</g>
						</g>
						<g id="Bottom">
							
								<linearGradient id="SVGID_3_" gradientUnits="userSpaceOnUse" x1="49.9741" y1="219.8329" x2="270.7554" y2="219.8329" gradientTransform="matrix(-1 0 0 1 560.0435 0)">
								<stop  offset="0" style="stop-color:#5A64AD"/>
								<stop  offset="0.1564" style="stop-color:#5E66AF"/>
								<stop  offset="0.3409" style="stop-color:#686EB4"/>
								<stop  offset="0.5395" style="stop-color:#7A7DBC"/>
								<stop  offset="0.7481" style="stop-color:#9393C8"/>
								<stop  offset="0.9625" style="stop-color:#B6B5DB"/>
								<stop  offset="1" style="stop-color:#BEBDDF"/>
							</linearGradient>
							<path class="st12" d="M289.29,198.32l7.38,3.86l74.05-42.75c1.24-0.72,3.4-0.63,4.83,0.2l127.72,73.74
								c1.22-0.68,6.79-3.36,6.79-3.36l-2.7,4.39c0,0-0.01-0.01-0.01-0.01c-0.11,0.31-0.35,0.61-0.76,0.84l-77.99,45.03
								c-1.24,0.72-3.4,0.63-4.83-0.2l-130.7-75.46c-0.59-0.34-0.95-0.75-1.1-1.17l-0.01,0.01L289.29,198.32z"/>
							
								<linearGradient id="SVGID_4_" gradientUnits="userSpaceOnUse" x1="-48.1104" y1="213.7961" x2="277.2184" y2="213.7961" gradientTransform="matrix(-1 0 0 1 560.0435 0)">
								<stop  offset="0" style="stop-color:#C2BEDF"/>
								<stop  offset="0.3027" style="stop-color:#C6C3E2"/>
								<stop  offset="0.6588" style="stop-color:#D4D2E9"/>
								<stop  offset="1" style="stop-color:#E8E8F4"/>
							</linearGradient>
							<path class="st13" d="M290.43,199.53l133.95,77.33c1.47,0.85,3.68,0.94,4.95,0.21l79.93-46.15c1.27-0.73,1.11-2.01-0.36-2.86
								l-133.95-77.33c-1.47-0.85-3.68-0.94-4.95-0.21l-79.93,46.15C288.8,197.4,288.96,198.68,290.43,199.53z"/>
							<path class="st14" d="M290.43,198.93l133.95,77.33c1.47,0.85,3.68,0.94,4.95,0.21l79.93-46.15c0.45-0.26,0.71-0.59,0.81-0.94
								c0.14,0.57-0.11,1.13-0.81,1.54l-79.93,46.15c-1.27,0.73-3.49,0.64-4.95-0.21l-133.95-77.33c-0.95-0.55-1.34-1.28-1.16-1.92
								C289.39,198.08,289.77,198.55,290.43,198.93z"/>
						</g>
					</g>
				</g>
				<g id="Keypads" class="st15">
					<path class="st9" d="M352.04,190.97l-4.25-2.45c-0.34-0.2-0.3-0.54,0.1-0.77l5.02-2.9c0.39-0.23,0.99-0.25,1.33-0.06l4.25,2.46
						c0.34,0.2,0.3,0.54-0.1,0.77l-5.02,2.9C352.98,191.14,352.38,191.16,352.04,190.97z"/>
					<path class="st9" d="M358.61,194.76l-4.25-2.46c-0.34-0.2-0.3-0.54,0.1-0.77l5.02-2.9c0.39-0.23,0.99-0.25,1.33-0.06l4.25,2.46
						c0.34,0.2,0.3,0.54-0.1,0.77l-5.02,2.9C359.55,194.93,358.95,194.95,358.61,194.76z"/>
					<path class="st9" d="M365.18,198.55l-4.25-2.46c-0.34-0.2-0.3-0.54,0.1-0.77l5.02-2.9c0.39-0.23,0.99-0.25,1.33-0.06l4.25,2.46
						c0.34,0.2,0.3,0.54-0.1,0.77l-5.02,2.9C366.11,198.72,365.52,198.75,365.18,198.55z"/>
					<path class="st9" d="M374.26,195.42l-4.25-2.45c-0.34-0.2-0.3-0.54,0.1-0.77l4.21-2.43c0.39-0.23,0.99-0.25,1.33-0.06
						l4.25,2.46c0.34,0.2,0.3,0.54-0.1,0.77l-4.21,2.43C375.2,195.59,374.6,195.62,374.26,195.42z"/>
					<path class="st9" d="M380.82,199.21l-4.25-2.46c-0.34-0.2-0.3-0.54,0.1-0.77l4.21-2.43c0.39-0.23,0.99-0.25,1.33-0.06
						l4.25,2.46c0.34,0.2,0.3,0.54-0.1,0.77l-4.21,2.43C381.76,199.38,381.17,199.41,380.82,199.21z"/>
					<path class="st9" d="M387.39,203l-4.25-2.46c-0.34-0.2-0.3-0.54,0.1-0.77l4.21-2.43c0.39-0.23,0.99-0.25,1.33-0.06l4.25,2.46
						c0.34,0.2,0.3,0.54-0.1,0.77l-4.21,2.43C388.33,203.17,387.73,203.2,387.39,203z"/>
					<path class="st9" d="M393.96,206.79l-4.25-2.46c-0.34-0.2-0.3-0.54,0.1-0.77l4.21-2.43c0.39-0.23,0.99-0.25,1.33-0.06
						l4.25,2.46c0.34,0.2,0.3,0.54-0.1,0.77l-4.21,2.43C394.9,206.96,394.3,206.99,393.96,206.79z"/>
					<path class="st9" d="M400.52,210.58l-4.25-2.45c-0.34-0.2-0.3-0.54,0.1-0.77l4.21-2.43c0.39-0.23,0.99-0.25,1.33-0.06
						l4.25,2.46c0.34,0.2,0.3,0.54-0.1,0.77l-4.21,2.43C401.46,210.76,400.87,210.78,400.52,210.58z"/>
					<path class="st9" d="M407.09,214.37l-4.25-2.45c-0.34-0.2-0.3-0.54,0.1-0.77l4.21-2.43c0.39-0.23,0.99-0.25,1.33-0.06
						l4.25,2.45c0.34,0.2,0.3,0.54-0.1,0.77l-4.21,2.43C408.03,214.55,407.43,214.57,407.09,214.37z"/>
					<path class="st9" d="M413.66,218.17l-4.25-2.46c-0.34-0.2-0.3-0.54,0.1-0.77l4.21-2.43c0.39-0.23,0.99-0.25,1.33-0.06
						l4.25,2.45c0.34,0.2,0.3,0.54-0.1,0.77l-4.21,2.43C414.6,218.34,414,218.36,413.66,218.17z"/>
					<path class="st9" d="M420.22,221.96l-4.25-2.46c-0.34-0.2-0.3-0.54,0.1-0.77l4.21-2.43c0.39-0.23,0.99-0.25,1.33-0.06
						l4.25,2.46c0.34,0.2,0.3,0.54-0.1,0.77l-4.21,2.43C421.16,222.13,420.57,222.15,420.22,221.96z"/>
					<path class="st9" d="M426.79,225.75l-4.25-2.45c-0.34-0.2-0.3-0.54,0.1-0.77l4.21-2.43c0.39-0.23,0.99-0.25,1.33-0.06
						l4.25,2.46c0.34,0.2,0.3,0.54-0.1,0.77l-4.21,2.43C427.73,225.92,427.13,225.95,426.79,225.75z"/>
					<path class="st9" d="M433.36,229.54l-4.25-2.46c-0.34-0.2-0.3-0.54,0.1-0.77l4.21-2.43c0.39-0.23,0.99-0.25,1.33-0.06
						l4.25,2.46c0.34,0.2,0.3,0.54-0.1,0.77l-4.21,2.43C434.3,229.71,433.7,229.74,433.36,229.54z"/>
					<path class="st9" d="M383.93,193.62l-4.25-2.45c-0.34-0.2-0.3-0.54,0.1-0.77l4.21-2.43c0.39-0.23,0.99-0.25,1.33-0.06
						l4.25,2.46c0.34,0.2,0.3,0.54-0.1,0.77l-4.21,2.43C384.87,193.8,384.28,193.82,383.93,193.62z"/>
					<path class="st9" d="M377.27,189.78l-4.25-2.46c-0.34-0.2-0.3-0.54,0.1-0.77l4.21-2.43c0.39-0.23,0.99-0.25,1.33-0.06
						l4.25,2.46c0.34,0.2,0.3,0.54-0.1,0.77l-4.21,2.43C378.21,189.95,377.61,189.97,377.27,189.78z"/>
					<path class="st9" d="M370.59,185.92l-9.16-5.29c-0.34-0.2-0.3-0.54,0.1-0.77l4.21-2.43c0.39-0.23,0.99-0.25,1.33-0.06
						l9.16,5.29c0.34,0.2,0.3,0.54-0.1,0.77l-4.21,2.43C371.53,186.09,370.93,186.12,370.59,185.92z"/>
					<path class="st9" d="M375.26,181.23l-7.43-4.29c-0.34-0.2-0.3-0.54,0.1-0.77l4.21-2.43c0.39-0.23,0.99-0.25,1.33-0.06
						l7.43,4.29c0.34,0.2,0.3,0.54-0.1,0.77l-4.21,2.43C376.2,181.41,375.6,181.43,375.26,181.23z"/>
					<path class="st9" d="M390.5,197.41l-4.25-2.46c-0.34-0.2-0.3-0.54,0.1-0.77l4.21-2.43c0.39-0.23,0.99-0.25,1.33-0.06l4.25,2.45
						c0.34,0.2,0.3,0.54-0.1,0.77l-4.21,2.43C391.44,197.59,390.84,197.61,390.5,197.41z"/>
					<path class="st9" d="M397.07,201.21l-4.25-2.46c-0.34-0.2-0.3-0.54,0.1-0.77l4.21-2.43c0.39-0.23,0.99-0.25,1.33-0.06
						l4.25,2.46c0.34,0.2,0.3,0.54-0.1,0.77l-4.21,2.43C398,201.38,397.41,201.4,397.07,201.21z"/>
					<path class="st9" d="M403.63,205l-4.25-2.45c-0.34-0.2-0.3-0.54,0.1-0.77l4.21-2.43c0.39-0.23,0.99-0.25,1.33-0.06l4.25,2.46
						c0.34,0.2,0.3,0.54-0.1,0.77l-4.21,2.43C404.57,205.17,403.98,205.19,403.63,205z"/>
					<path class="st9" d="M410.2,208.79l-4.25-2.46c-0.34-0.2-0.3-0.54,0.1-0.77l4.21-2.43c0.39-0.23,0.99-0.25,1.33-0.06l4.25,2.46
						c0.34,0.2,0.3,0.54-0.1,0.77l-4.21,2.43C411.14,208.96,410.54,208.99,410.2,208.79z"/>
					<path class="st9" d="M416.77,212.58l-4.25-2.46c-0.34-0.2-0.3-0.54,0.1-0.77l4.21-2.43c0.39-0.23,0.99-0.25,1.33-0.06
						l4.25,2.46c0.34,0.2,0.3,0.54-0.1,0.77l-4.21,2.43C417.7,212.75,417.11,212.78,416.77,212.58z"/>
					<path class="st9" d="M423.33,216.37l-4.25-2.46c-0.34-0.2-0.3-0.54,0.1-0.77l4.21-2.43c0.39-0.23,0.99-0.25,1.33-0.06
						l4.25,2.46c0.34,0.2,0.3,0.54-0.1,0.77l-4.21,2.43C424.27,216.54,423.67,216.57,423.33,216.37z"/>
					<path class="st9" d="M429.9,220.16l-4.25-2.46c-0.34-0.2-0.3-0.54,0.1-0.77l4.21-2.43c0.39-0.23,0.99-0.25,1.33-0.06l4.25,2.46
						c0.34,0.2,0.3,0.54-0.1,0.77l-4.21,2.43C430.84,220.33,430.24,220.36,429.9,220.16z"/>
					<path class="st9" d="M436.47,223.95l-4.25-2.46c-0.34-0.2-0.3-0.54,0.1-0.77l4.21-2.43c0.39-0.23,0.99-0.25,1.33-0.06
						l4.25,2.46c0.34,0.2,0.3,0.54-0.1,0.77l-4.21,2.43C437.4,224.13,436.81,224.15,436.47,223.95z"/>
					<path class="st9" d="M443.03,227.74l-4.25-2.46c-0.34-0.2-0.3-0.54,0.1-0.77l4.21-2.43c0.39-0.23,0.99-0.25,1.33-0.06
						l4.25,2.45c0.34,0.2,0.3,0.54-0.1,0.77l-4.21,2.43C443.97,227.92,443.37,227.94,443.03,227.74z"/>
					<path class="st9" d="M454.71,234.48l-9.28-5.36c-0.34-0.2-0.3-0.54,0.1-0.77l4.21-2.43c0.39-0.23,0.99-0.25,1.33-0.06
						l9.28,5.36c0.34,0.2,0.3,0.54-0.1,0.77l-4.21,2.43C455.64,234.66,455.05,234.68,454.71,234.48z"/>
					<path class="st9" d="M467.49,227.1l-7.83-4.52c-0.34-0.2-0.3-0.54,0.1-0.77l4.21-2.43c0.39-0.23,0.99-0.25,1.33-0.06l7.83,4.52
						c0.34,0.2,0.3,0.54-0.1,0.77l-4.21,2.43C468.43,227.28,467.83,227.3,467.49,227.1z"/>
					<path class="st9" d="M402,196.67l-4.25-2.45c-0.34-0.2-0.3-0.54,0.1-0.77l4.21-2.43c0.39-0.23,0.99-0.25,1.33-0.06l4.25,2.46
						c0.34,0.2,0.3,0.54-0.1,0.77l-4.21,2.43C402.94,196.85,402.34,196.87,402,196.67z"/>
					<path class="st9" d="M395.27,192.79l-4.25-2.46c-0.34-0.2-0.3-0.54,0.1-0.77l4.21-2.43c0.39-0.23,0.99-0.25,1.33-0.06
						l4.25,2.46c0.34,0.2,0.3,0.54-0.1,0.77l-4.21,2.43C396.21,192.96,395.61,192.98,395.27,192.79z"/>
					<path class="st9" d="M388.54,188.9l-4.25-2.46c-0.34-0.2-0.3-0.54,0.1-0.77l4.21-2.43c0.39-0.23,0.99-0.25,1.33-0.06l4.25,2.46
						c0.34,0.2,0.3,0.54-0.1,0.77l-4.21,2.43C389.48,189.07,388.88,189.1,388.54,188.9z"/>
					<path class="st9" d="M381.81,185.02l-4.25-2.45c-0.34-0.2-0.3-0.54,0.1-0.77l4.21-2.43c0.39-0.23,0.99-0.25,1.33-0.06
						l4.25,2.46c0.34,0.2,0.3,0.54-0.1,0.77l-4.21,2.43C382.75,185.19,382.15,185.21,381.81,185.02z"/>
					<path class="st9" d="M408.57,200.46l-4.25-2.46c-0.34-0.2-0.3-0.54,0.1-0.77l4.21-2.43c0.39-0.23,0.99-0.25,1.33-0.06
						l4.25,2.45c0.34,0.2,0.3,0.54-0.1,0.77l-4.21,2.43C409.5,200.64,408.91,200.66,408.57,200.46z"/>
					<path class="st9" d="M415.13,204.26l-4.25-2.45c-0.34-0.2-0.3-0.54,0.1-0.77l4.21-2.43c0.39-0.23,0.99-0.25,1.33-0.06
						l4.25,2.46c0.34,0.2,0.3,0.54-0.1,0.77l-4.21,2.43C416.07,204.43,415.47,204.45,415.13,204.26z"/>
					<path class="st9" d="M421.7,208.05l-4.25-2.46c-0.34-0.2-0.3-0.54,0.1-0.77l4.21-2.43c0.39-0.23,0.99-0.25,1.33-0.06l4.25,2.46
						c0.34,0.2,0.3,0.54-0.1,0.77l-4.21,2.43C422.64,208.22,422.04,208.24,421.7,208.05z"/>
					<path class="st9" d="M428.27,211.84l-4.25-2.46c-0.34-0.2-0.3-0.54,0.1-0.77l4.21-2.43c0.39-0.23,0.99-0.25,1.33-0.06
						l4.25,2.46c0.34,0.2,0.3,0.54-0.1,0.77l-4.21,2.43C429.2,212.01,428.61,212.03,428.27,211.84z"/>
					<path class="st9" d="M434.83,215.63l-4.25-2.46c-0.34-0.2-0.3-0.54,0.1-0.77l4.21-2.43c0.39-0.23,0.99-0.25,1.33-0.06
						l4.25,2.45c0.34,0.2,0.3,0.54-0.1,0.77l-4.21,2.43C435.77,215.8,435.17,215.83,434.83,215.63z"/>
					<path class="st9" d="M441.4,219.42l-4.25-2.46c-0.34-0.2-0.3-0.54,0.1-0.77l4.21-2.43c0.39-0.23,0.99-0.25,1.33-0.06l4.25,2.46
						c0.34,0.2,0.3,0.54-0.1,0.77l-4.21,2.43C442.34,219.59,441.74,219.62,441.4,219.42z"/>
					<path class="st9" d="M447.97,223.21l-4.25-2.46c-0.34-0.2-0.3-0.54,0.1-0.77l4.21-2.43c0.39-0.23,0.99-0.25,1.33-0.06
						l4.25,2.46c0.34,0.2,0.3,0.54-0.1,0.77l-4.21,2.43C448.9,223.38,448.31,223.41,447.97,223.21z"/>
					<path class="st9" d="M454.53,227l-4.25-2.46c-0.34-0.2-0.3-0.54,0.1-0.77l4.21-2.43c0.39-0.23,0.99-0.25,1.33-0.06l4.25,2.45
						c0.34,0.2,0.3,0.54-0.1,0.77l-4.21,2.43C455.47,227.17,454.87,227.2,454.53,227z"/>
					<path class="st9" d="M461.1,230.79l-4.25-2.46c-0.34-0.2-0.3-0.54,0.1-0.77l4.21-2.43c0.39-0.23,0.99-0.25,1.33-0.06l4.25,2.46
						c0.34,0.2,0.3,0.54-0.1,0.77l-4.21,2.43C462.04,230.97,461.44,230.99,461.1,230.79z"/>
					<path class="st9" d="M398.54,187.3l-4.25-2.46c-0.34-0.2-0.3-0.54,0.1-0.77l4.21-2.43c0.39-0.23,0.99-0.25,1.33-0.06l4.25,2.46
						c0.34,0.2,0.3,0.54-0.1,0.77l-4.21,2.43C399.48,187.47,398.88,187.49,398.54,187.3z"/>
					<path class="st9" d="M392.01,183.52l-4.25-2.46c-0.34-0.2-0.3-0.54,0.1-0.77l4.21-2.43c0.39-0.23,0.99-0.25,1.33-0.06
						l4.25,2.46c0.34,0.2,0.3,0.54-0.1,0.77l-4.21,2.43C392.95,183.7,392.35,183.72,392.01,183.52z"/>
					<path class="st9" d="M385.47,179.75l-4.25-2.45c-0.34-0.2-0.3-0.54,0.1-0.77l4.21-2.43c0.39-0.23,0.99-0.25,1.33-0.06
						l4.25,2.46c0.34,0.2,0.3,0.54-0.1,0.77l-4.21,2.43C386.41,179.92,385.82,179.95,385.47,179.75z"/>
					<path class="st9" d="M378.94,175.98l-4.25-2.46c-0.34-0.2-0.3-0.54,0.1-0.77l4.21-2.43c0.39-0.23,0.99-0.25,1.33-0.06
						l4.25,2.45c0.34,0.2,0.3,0.54-0.1,0.77l-4.21,2.43C379.88,176.15,379.28,176.18,378.94,175.98z"/>
					<path class="st9" d="M385.66,172.1l-4.25-2.45c-0.34-0.2-0.3-0.54,0.1-0.77l1.39-0.8c0.39-0.23,0.99-0.25,1.33-0.06l4.25,2.46
						c0.34,0.2,0.3,0.54-0.1,0.77l-1.39,0.8C386.6,172.27,386,172.3,385.66,172.1z"/>
					<path class="st9" d="M394.19,177.02l-4.25-2.46c-0.34-0.2-0.3-0.54,0.1-0.77l1.39-0.8c0.39-0.23,0.99-0.25,1.33-0.06l4.25,2.46
						c0.34,0.2,0.3,0.54-0.1,0.77l-1.39,0.8C395.12,177.19,394.53,177.22,394.19,177.02z"/>
					<path class="st9" d="M400.69,180.78l-4.25-2.46c-0.34-0.2-0.3-0.54,0.1-0.77l1.39-0.8c0.39-0.23,0.99-0.25,1.33-0.06l4.25,2.45
						c0.34,0.2,0.3,0.54-0.1,0.77l-1.39,0.8C401.63,180.95,401.03,180.98,400.69,180.78z"/>
					<path class="st9" d="M407.2,184.54l-4.25-2.46c-0.34-0.2-0.3-0.54,0.1-0.77l1.39-0.8c0.39-0.23,0.99-0.25,1.33-0.06l4.25,2.46
						c0.34,0.2,0.3,0.54-0.1,0.77l-1.39,0.8C408.14,184.71,407.54,184.73,407.2,184.54z"/>
					<path class="st9" d="M413.71,188.29l-4.25-2.45c-0.34-0.2-0.3-0.54,0.1-0.77l1.39-0.8c0.39-0.23,0.99-0.25,1.33-0.06l4.25,2.46
						c0.34,0.2,0.3,0.54-0.1,0.77l-1.39,0.8C414.64,188.46,414.05,188.49,413.71,188.29z"/>
					<path class="st9" d="M450.03,209.26l-4.25-2.46c-0.34-0.2-0.3-0.54,0.1-0.77l1.39-0.8c0.39-0.23,0.99-0.25,1.33-0.06l4.25,2.45
						c0.34,0.2,0.3,0.54-0.1,0.77l-1.39,0.8C450.97,209.44,450.37,209.46,450.03,209.26z"/>
					<path class="st9" d="M456.54,213.02l-4.25-2.46c-0.34-0.2-0.3-0.54,0.1-0.77l1.39-0.8c0.39-0.23,0.99-0.25,1.33-0.06l4.25,2.46
						c0.34,0.2,0.3,0.54-0.1,0.77l-1.39,0.8C457.48,213.19,456.88,213.22,456.54,213.02z"/>
					<path class="st9" d="M463.05,216.78l-4.25-2.46c-0.34-0.2-0.3-0.54,0.1-0.77l1.39-0.8c0.39-0.23,0.99-0.25,1.33-0.06l4.25,2.46
						c0.34,0.2,0.3,0.54-0.1,0.77l-1.39,0.8C463.98,216.95,463.39,216.98,463.05,216.78z"/>
					<path class="st9" d="M469.55,220.53l-4.25-2.45c-0.34-0.2-0.3-0.54,0.1-0.77l1.39-0.8c0.39-0.23,0.99-0.25,1.33-0.06l4.25,2.46
						c0.34,0.2,0.3,0.54-0.1,0.77l-1.39,0.8C470.49,220.71,469.89,220.73,469.55,220.53z"/>
					<path class="st9" d="M405.11,191.09l-4.25-2.46c-0.34-0.2-0.3-0.54,0.1-0.77l4.21-2.43c0.39-0.23,0.99-0.25,1.33-0.06
						l4.25,2.46c0.34,0.2,0.3,0.54-0.1,0.77l-4.21,2.43C406.05,191.26,405.45,191.28,405.11,191.09z"/>
					<path class="st9" d="M411.68,194.88l-4.25-2.46c-0.34-0.2-0.3-0.54,0.1-0.77l4.21-2.43c0.39-0.23,0.99-0.25,1.33-0.06
						l4.25,2.45c0.34,0.2,0.3,0.54-0.1,0.77l-4.21,2.43C412.61,195.05,412.02,195.07,411.68,194.88z"/>
					<path class="st9" d="M418.24,198.67l-4.25-2.46c-0.34-0.2-0.3-0.54,0.1-0.77l4.21-2.43c0.39-0.23,0.99-0.25,1.33-0.06
						l4.25,2.46c0.34,0.2,0.3,0.54-0.1,0.77l-4.21,2.43C419.18,198.84,418.58,198.87,418.24,198.67z"/>
					<path class="st9" d="M424.81,202.46l-4.25-2.45c-0.34-0.2-0.3-0.54,0.1-0.77l4.21-2.43c0.39-0.23,0.99-0.25,1.33-0.06
						l4.25,2.46c0.34,0.2,0.3,0.54-0.1,0.77l-4.21,2.43C425.75,202.63,425.15,202.66,424.81,202.46z"/>
					<path class="st9" d="M431.38,206.25l-4.25-2.46c-0.34-0.2-0.3-0.54,0.1-0.77l4.21-2.43c0.39-0.23,0.99-0.25,1.33-0.06
						l4.25,2.46c0.34,0.2,0.3,0.54-0.1,0.77l-4.21,2.43C432.31,206.42,431.72,206.45,431.38,206.25z"/>
					<path class="st9" d="M437.94,210.04l-4.25-2.46c-0.34-0.2-0.3-0.54,0.1-0.77l4.21-2.43c0.39-0.23,0.99-0.25,1.33-0.06
						l4.25,2.46c0.34,0.2,0.3,0.54-0.1,0.77l-4.21,2.43C438.88,210.22,438.28,210.24,437.94,210.04z"/>
					<path class="st9" d="M444.51,213.83l-4.25-2.45c-0.34-0.2-0.3-0.54,0.1-0.77l4.21-2.43c0.39-0.23,0.99-0.25,1.33-0.06
						l4.25,2.46c0.34,0.2,0.3,0.54-0.1,0.77l-4.21,2.43C445.45,214.01,444.85,214.03,444.51,213.83z"/>
					<path class="st9" d="M451.08,217.63l-4.25-2.45c-0.34-0.2-0.3-0.54,0.1-0.77l4.21-2.43c0.39-0.23,0.99-0.25,1.33-0.06
						l4.25,2.46c0.34,0.2,0.3,0.54-0.1,0.77l-4.21,2.43C452.01,217.8,451.42,217.82,451.08,217.63z"/>
					<path class="st9" d="M457.64,221.42l-4.25-2.46c-0.34-0.2-0.3-0.54,0.1-0.77l4.21-2.43c0.39-0.23,0.99-0.25,1.33-0.06
						l4.25,2.45c0.34,0.2,0.3,0.54-0.1,0.77l-4.21,2.43C458.58,221.59,457.98,221.61,457.64,221.42z"/>
					<path class="st9" d="M367.57,191.55l-12.52-7.23c-0.34-0.2-0.3-0.54,0.1-0.77l4.21-2.43c0.39-0.23,0.99-0.25,1.33-0.06
						l12.52,7.23c0.34,0.2,0.3,0.54-0.1,0.77l-4.21,2.43C368.5,191.73,367.91,191.75,367.57,191.55z"/>
					<path class="st9" d="M448.24,238.13l-12.52-7.23c-0.34-0.2-0.3-0.54,0.1-0.77l4.21-2.43c0.39-0.23,0.99-0.25,1.33-0.06
						l12.52,7.23c0.34,0.2,0.3,0.54-0.1,0.77l-4.21,2.43C449.18,238.3,448.58,238.33,448.24,238.13z"/>
					<path class="st9" d="M421.98,231.34l-4.25-2.46c-0.34-0.2-0.3-0.54,0.1-0.77l5.02-2.9c0.39-0.23,0.99-0.25,1.33-0.06l4.25,2.45
						c0.34,0.2,0.3,0.54-0.1,0.77l-5.02,2.9C422.92,231.52,422.32,231.54,421.98,231.34z"/>
					<path class="st9" d="M374.29,203.81l-6.8-3.93c-0.34-0.2-0.3-0.54,0.1-0.77l5.02-2.9c0.39-0.23,0.99-0.25,1.33-0.06l6.8,3.93
						c0.34,0.2,0.3,0.54-0.1,0.77l-5.02,2.9C375.23,203.98,374.63,204.01,374.29,203.81z"/>
					<path class="st9" d="M415.65,227.69l-6.8-3.93c-0.34-0.2-0.3-0.54,0.1-0.77l5.02-2.9c0.39-0.23,0.99-0.25,1.33-0.06l6.8,3.93
						c0.34,0.2,0.3,0.54-0.1,0.77l-5.02,2.9C416.59,227.86,415.99,227.89,415.65,227.69z"/>
					<path class="st9" d="M383.77,209.28l-6.8-3.93c-0.34-0.2-0.3-0.54,0.1-0.77l5.02-2.9c0.39-0.23,0.99-0.25,1.33-0.06l6.8,3.93
						c0.34,0.2,0.3,0.54-0.1,0.77l-5.02,2.9C384.7,209.45,384.11,209.48,383.77,209.28z"/>
					<path class="st9" d="M383.46,201.66l29.57,17.07c0.37,0.21,0.37,0.56,0,0.77l-5.12,2.95c-0.37,0.21-0.96,0.21-1.33,0
						l-29.57-17.07L383.46,201.66z"/>
					<path class="st9" d="M440.33,238.22l4.74,2.73c0.28,0.16,0.24,0.44-0.08,0.63l-2.05,1.19c-0.32,0.19-0.81,0.21-1.09,0.05
						l-4.74-2.73c-0.28-0.16-0.24-0.44,0.08-0.63l2.05-1.19C439.56,238.08,440.05,238.06,440.33,238.22z"/>
					<path class="st9" d="M433.71,234.39l4.74,2.73c0.28,0.16,0.24,0.44-0.08,0.63l-2.05,1.19c-0.32,0.19-0.81,0.21-1.09,0.05
						l-4.74-2.73c-0.28-0.16-0.24-0.44,0.08-0.63l2.05-1.19C432.94,234.25,433.43,234.23,433.71,234.39z"/>
					<path class="st9" d="M427.14,230.6l4.74,2.73c0.28,0.16,0.24,0.44-0.08,0.63l-2.05,1.19c-0.32,0.19-0.81,0.21-1.09,0.05
						l-4.74-2.73c-0.28-0.16-0.24-0.44,0.08-0.63l2.05-1.19C426.37,230.46,426.86,230.44,427.14,230.6z"/>
					<path class="st9" d="M437.34,232.3l4.74,2.73c0.28,0.16,0.24,0.44-0.08,0.63l-2.05,1.19c-0.32,0.19-0.81,0.21-1.09,0.05
						l-4.74-2.73c-0.28-0.16-0.24-0.44,0.08-0.63l2.05-1.19C436.57,232.16,437.06,232.14,437.34,232.3z"/>
				</g>
			</g>
		</g>
	</g>
</g>
</svg>
